<svg width="219.94095966463598" height="148.5" viewBox="0 0 350 236.3134182884853" class="css-1j8o68f">
  <defs id="SvgjsDefs2757">
    <linearGradient id="SvgjsLinearGradient2762">
      <stop id="SvgjsStop2763" stop-color="#006838" offset="0"></stop>
      <stop id="SvgjsStop2764" stop-color="#96cf24" offset="1"></stop>
    </linearGradient>
  </defs>
  <g id="SvgjsG2758" featurekey="e7LhAk-0" transform="matrix(1.494624709516678,0,0,1.494624709516678,100.26951285139512,-3.736561773791695)" fill="url(#SvgjsLinearGradient2762)">
    <path xmlns="http://www.w3.org/2000/svg" fill="url(#SvgjsLinearGradient2762)" d="M62.117,83.835c-20.894,0-37.837-16.926-37.837-37.808c0-20.887,16.943-37.831,37.837-37.831  c6.466,0,12.562,1.637,17.883,4.503C71.914,6.332,61.75,2.5,50.671,2.5C24.437,2.5,3.165,23.777,3.165,50.006  C3.165,76.24,24.437,97.5,50.671,97.5c22.421,0,41.179-15.57,46.163-36.475C91.021,74.45,77.661,83.835,62.117,83.835z">
    </path>
    <polygon xmlns="http://www.w3.org/2000/svg" fill="url(#SvgjsLinearGradient2762)" points="57.514,65.743 60.335,48.643 46.762,38.67 64.032,36.877 67.884,19.019 75.387,35.735   92.885,34.588 80.501,47.104 86.245,62.431 71.022,54.619 ">
    </polygon>
  </g>
  <g id="SvgjsG2759" featurekey="Qg0WB5-0" transform="matrix(4.038772398141724,0,0,4.038772398141724,-2.100161570000226,137.7673713886599)" fill="#111111">
    <path d="M0.52 20 l0 -0.54 c0.68 -0.74 1.04 -1.66 1.04 -2.58 l0 -7.7 c0 -0.96 -0.36 -1.92 -1.04 -2.6 l0 -0.58 l3.2 0 l0 8.22 l3.7 -2.9 l-0.14 -0.64 l0 -0.34 l3 0 l0 0.34 l-1.54 0.64 l-3.6 2.86 l1.02 -0.04 l3.82 4.18 c0.04 0.06 0.24 0.2 0.34 0.26 l1.4 0.88 l0 0.54 l-4.24 0 l0 -0.54 c0.5 -0.34 0.64 -1.06 0.26 -1.52 l-2.88 -3.54 l-1.14 0.9 l0 1.6 c0 0.94 0.34 1.82 1.02 2.56 l0 0.54 l-4.22 0 z M20.060000000000002 20 l-0.54 -0.14 c-0.9 -0.24 -1.88 -0.24 -2.72 0.02 c-0.34 0.1 -0.66 0.12 -0.98 0.12 c-1.96 0 -3.52 -1.54 -3.52 -3.48 c0 -1.9 1.56 -3.46 3.52 -3.46 c0.78 0 1.48 0.24 2.02 0.62 l0 -0.02 s0.16 -2.44 -0.92 -2.74 c-1.12 -0.32 -1.52 0.34 -2.34 1.58 l-1.68 -0.02 c0.52 -1.32 1.54 -2.24 2.98 -2.24 c0.54 0 1.1 0.1 1.64 0.26 c0 0 2.54 0.78 2.54 3.16 l0 6.34 z M13.92 17.02 c0.46 1.5 1.6 2.56 2.76 2.3 c1.12 -0.26 1.64 -1.72 1.18 -3.28 c-0.44 -1.48 -1.74 -2.54 -2.86 -2.26 c-1.14 0.28 -1.54 1.72 -1.08 3.24 z M18.06 24.4 l0 -1.86 l0.58 0 l0.68 0.48 c1.64 1.16 3.04 -0.82 3.04 -2.4 l0 -7.84 c0 -0.48 -0.18 -0.98 -0.5 -1.36 l-0.48 -0.52 l0 -0.56 l2.92 0 s0.02 2.34 0.02 2.44 l0 7.94 c0 2.3 -1.62 3.68 -3.96 3.68 l-2.3 0 z M23.06 9.46 c-0.78 0 -1.38 -0.64 -1.38 -1.4 c0 -0.78 0.6 -1.4 1.38 -1.4 s1.4 0.62 1.4 1.4 c0 0.76 -0.62 1.4 -1.4 1.4 z M26.18 20 l0 -0.54 c0.56 -0.7 0.86 -1.66 0.86 -2.62 l0 -3.32 c0 -0.98 -0.3 -1.92 -0.86 -2.62 l0 -0.56 l2.76 0 l0 6.52 c0 0.94 0.32 1.9 0.9 2.6 l0 0.54 l-3.66 0 z M27.72 9.46 c-0.76 0 -1.38 -0.64 -1.38 -1.4 c0 -0.78 0.62 -1.4 1.38 -1.4 c0.78 0 1.4 0.62 1.4 1.4 c0 0.76 -0.62 1.4 -1.4 1.4 z M38.900000000000006 20 l-0.54 -0.14 c-0.9 -0.24 -1.88 -0.24 -2.72 0.02 c-0.34 0.1 -0.66 0.12 -0.98 0.12 c-1.96 0 -3.52 -1.54 -3.52 -3.48 c0 -1.9 1.56 -3.46 3.52 -3.46 c0.78 0 1.48 0.24 2.02 0.62 l0 -0.02 s0.16 -2.44 -0.92 -2.74 c-1.12 -0.32 -1.52 0.34 -2.34 1.58 l-1.68 -0.02 c0.52 -1.32 1.54 -2.24 2.98 -2.24 c0.54 0 1.1 0.1 1.64 0.26 c0 0 2.54 0.78 2.54 3.16 l0 6.34 z M32.76 17.02 c0.46 1.5 1.6 2.56 2.76 2.3 c1.12 -0.26 1.64 -1.72 1.18 -3.28 c-0.44 -1.48 -1.74 -2.54 -2.86 -2.26 c-1.14 0.28 -1.54 1.72 -1.08 3.24 z M40.54 20 l0 -0.54 c0.66 -0.7 1.02 -1.66 1.02 -2.62 l0 -3.32 c0 -0.98 -0.36 -1.92 -1.02 -2.62 l0 -0.56 l3.18 0 l0 1.12 c0.68 -0.38 1.46 -0.62 2.18 -0.62 c2.34 0 3.62 1.42 3.62 4.88 l0 1.12 c0 0.96 0.38 1.92 1.06 2.62 l0 0.54 l-4.28 0 l0 -0.54 c0.68 -0.7 1.06 -1.66 1.06 -2.62 l0 -2.42 c0 -1.56 -1.42 -3.1 -2.82 -2.72 c-0.5 0.14 -0.82 0.62 -0.82 1.14 l0 4.02 c0 0.94 0.4 1.9 1.04 2.6 l0 0.54 l-4.22 0 z M51.66 20 l0 -0.54 l0.76 -0.84 c0.18 -0.2 0.3 -0.42 0.3 -0.68 l0 -9.86 c0 -0.28 -0.12 -0.52 -0.3 -0.7 l-0.76 -0.82 l0 -0.56 l4.26 0 l0 0.56 l-0.76 0.82 c-0.18 0.18 -0.28 0.42 -0.28 0.7 l0 4.36 l6.4 -5.04 c0.32 -0.24 0.42 -0.64 0.34 -1.04 l0 -0.36 l3.04 0 l0 0.34 l-0.7 0.28 c-0.56 0.24 -1.14 0.54 -1.64 0.94 l-5.56 4.44 l1.76 0 l4.64 5.84 c0.3 0.38 0.62 0.7 1.04 1 l0.84 0.62 l0 0.54 l-4.24 0 l0 -0.54 c0.5 -0.34 0.64 -1.04 0.26 -1.5 l-4.56 -5.74 l-1.62 1.28 l0 4.44 c0 0.26 0.1 0.48 0.28 0.7 l0.76 0.82 l0 0.54 l-4.26 0 z M65.76 15.32 l-0.02 -2.68 c0 -0.42 -0.12 -0.78 -0.34 -1.12 l-0.36 -0.62 l0 -0.56 l3.42 0 l0 0.56 l-0.36 0.56 c-0.24 0.36 -0.46 0.84 -0.46 1.24 l0.1 4.2 c0.04 1.28 1.2 2.14 2.5 2.14 c1.96 0 2.44 -1.32 2.44 -2.6 l0 -3.96 c0 -0.6 -0.26 -1.16 -0.7 -1.54 l0 -0.6 l2.24 0 l0 0.6 l-0.16 0.18 c-0.4 0.4 -0.58 0.9 -0.58 1.44 l0 4.24 c0 0.8 -0.16 3.3 -3.32 3.3 c-2.5 0 -4.36 -0.74 -4.4 -4.78 z  M74.74000000000001 21.86 l0 -1.86 l0.66 0 l1.28 1.3 s0.42 0.44 0.94 0.44 c0.28 0 0.58 -0.14 0.88 -0.52 l2.5 -3.28 l-3.8 -5.94 c-0.08 -0.14 -0.2 -0.24 -0.32 -0.32 l-1.18 -0.78 l0 -0.56 l4.06 0 l0 0.56 l-0.1 0.12 c-0.32 0.34 -0.38 0.92 -0.1 1.34 l2.52 4.06 l2.72 -3.98 c0.12 -0.18 0.2 -0.4 0.2 -0.62 c0 -0.34 -0.14 -0.66 -0.42 -0.86 l0 -0.62 l2.6 0 l0 0.62 l-0.56 0.34 c-0.12 0.08 -0.22 0.2 -0.3 0.3 l-7.28 10.16 s-1.16 1.36 -2.24 1.36 c-0.6 0 -1.3 -0.32 -2.06 -1.26 z"></path>
  </g>
</svg>