<svg width="250" height="200" viewBox="50 0 250 150" class="css-1j8o68f">
	<defs id="SvgjsDefs1966">
		<linearGradient id="SvgjsLinearGradient1973">
			<stop id="SvgjsStop1974" stop-color="#2d388a" offset="0">
			</stop>
			<stop id="SvgjsStop1975" stop-color="#00aeef" offset="1">
			</stop>
		</linearGradient>
	</defs>
	<g id="SvgjsG1967" featurekey="41S5F6-0" transform="matrix(0.273781382744227,0,0,0.273781382744227,105.097716289781,-0.16289643837636142)" fill="url(#SvgjsLinearGradient1973)">
		<title xmlns="http://www.w3.org/2000/svg">
			Laughing-Emoji-Emotion-Face-Expression-Feeling_1
		</title>
		<path xmlns="http://www.w3.org/2000/svg" d="M256,111.73c-80.82,0-146.58,65.75-146.58,146.57S175.18,404.88,256,404.88,402.58,339.12,402.58,258.3,336.82,111.73,256,111.73Zm0,273.15A126.58,126.58,0,1,1,382.58,258.3,126.73,126.73,0,0,1,256,384.88Z">
		</path>
		<path xmlns="http://www.w3.org/2000/svg" d="M476.64,77.15C449.5,32,407,6.76,350.25,2.12,300-2,248.52,2.27,201.42,14.42c-50.74,13.09-95.07,35.22-128.19,64C52,96.83,35.15,118.06,23.11,141.52c-12.9,25.13-20.34,53-22.1,82.74-2.89,49-3,106.18,18.27,159.14C47.22,453,104.77,494.69,190.33,507.27a378,378,0,0,0,55,4.13,323.32,323.32,0,0,0,70.44-7.56c42.32-9.45,79-27.36,108.91-53.23C452,427.07,473.12,397.25,487.61,362,503.13,324.18,511,280,511,230.55,511,166.69,499.44,115.08,476.64,77.15Zm-7.53,277.23c-13.29,32.34-32.63,59.63-57.49,81.1-27.42,23.68-61.13,40.11-100.2,48.84-36.3,8.1-77.17,9.2-118.18,3.17-42.36-6.24-77.39-20.17-104.13-41.41C66.58,428.18,49.34,404.59,37.84,376,18.06,326.65,18.22,272.2,21,225.44c3.11-52.58,25.1-97,65.37-131.94,30.79-26.74,72.31-47.39,120.06-59.71A428.64,428.64,0,0,1,312.79,20.6c12,0,23.93.48,35.83,1.46,49.94,4.08,87.25,26.08,110.88,65.4,20.9,34.77,31.5,82.91,31.5,143.09C491,277.34,483.63,319,469.11,354.38Z">
		</path>
		<circle xmlns="http://www.w3.org/2000/svg" cx="180.93" cy="247.24" r="19.29">
		</circle>
		<circle xmlns="http://www.w3.org/2000/svg" cx="331.07" cy="247.24" r="19.29">
		</circle>
		<path xmlns="http://www.w3.org/2000/svg" d="M300.89,266H211.11a10,10,0,0,0-10,10,54.89,54.89,0,0,0,109.78,0A10,10,0,0,0,300.89,266ZM256,310.92a35,35,0,0,1-24.69-10.26,47.92,47.92,0,0,1,49.38,0A35,35,0,0,1,256,310.92Z">
		</path>
	</g>
</svg>
